<svg width="14" height="14" viewBox="0 0 14 14" fill="none" xmlns="http://www.w3.org/2000/svg">
<path fill-rule="evenodd" clip-rule="evenodd" d="M7.52511 0.34287L9.23139 3.96656C9.31685 4.14934 9.48188 4.2769 9.67343 4.30645L13.4934 4.88901C13.6481 4.91079 13.7874 4.99635 13.8824 5.12701C14.0607 5.37201 14.0334 5.71891 13.8198 5.92969L11.0511 8.75615C10.9104 8.89615 10.8478 9.10148 10.8846 9.30137L11.5477 13.2898C11.5941 13.6204 11.3804 13.93 11.0673 13.9836C10.9377 14.0046 10.8051 13.9829 10.6872 13.9214L7.28494 12.0384C7.11401 11.9404 6.9092 11.9404 6.73828 12.0384L3.31098 13.9315C3.02439 14.0855 2.67371 13.9712 2.51752 13.6748C2.45784 13.5551 2.43722 13.419 2.45784 13.286L3.12091 9.29749C3.15406 9.09837 3.09144 8.89382 2.9544 8.75304L0.171018 5.92735C-0.055897 5.68935 -0.0573705 5.30201 0.168807 5.06246C0.169544 5.06168 0.170281 5.06012 0.171018 5.05935C0.264583 4.9699 0.379514 4.91001 0.504022 4.88668L4.32473 4.30412C4.51555 4.27223 4.67984 4.14623 4.76677 3.96345L6.47158 0.34287C6.5401 0.195869 6.66166 0.0830907 6.809 0.031757C6.95709 -0.0203544 7.11917 -0.00790992 7.25841 0.0659795C7.37261 0.125869 7.46617 0.223092 7.52511 0.34287Z" fill="#F8D456"/>
</svg>
