<svg width="16" height="16" viewBox="0 0 16 16" fill="none" xmlns="http://www.w3.org/2000/svg">
<path d="M4.28865 14.2328C4.63081 14.2328 4.90891 14.5171 4.90891 14.8669C4.90891 15.2166 4.63081 15.5 4.28865 15.5C3.94649 15.5 3.66919 15.2166 3.66919 14.8669C3.66919 14.5171 3.94649 14.2328 4.28865 14.2328Z" fill="#0D0417" stroke="#0D0417" stroke-linecap="round" stroke-linejoin="round"/>
<path d="M13.412 14.2328C13.7542 14.2328 14.0323 14.5171 14.0323 14.8669C14.0323 15.2166 13.7542 15.5 13.412 15.5C13.0699 15.5 12.7917 15.2166 12.7917 14.8669C12.7917 14.5171 13.0699 14.2328 13.412 14.2328Z" fill="#0D0417" stroke="#0D0417" stroke-linecap="round" stroke-linejoin="round"/>
<path d="M0.5 0.5L2.18648 0.798354L2.96729 10.3067C3.03053 11.0816 3.66377 11.6767 4.42431 11.6767H13.2718C13.9983 11.6767 14.6145 11.1314 14.7191 10.3954L15.4886 4.96039C15.5834 4.28993 15.0751 3.6899 14.4126 3.6899H2.45729" stroke="#0D0417" stroke-linecap="round" stroke-linejoin="round"/>
<path d="M9.72339 6.753H11.9718" stroke="#0D0417" stroke-linecap="round" stroke-linejoin="round"/>
</svg>
