<svg width="13" height="13" viewBox="0 0 13 13" fill="none" xmlns="http://www.w3.org/2000/svg">
<path fill-rule="evenodd" clip-rule="evenodd" d="M6.9876 0.318379L8.57201 3.68324C8.65136 3.85296 8.80461 3.9714 8.98247 3.99885L12.5296 4.5398C12.6733 4.56002 12.8026 4.63946 12.8908 4.7608C13.0564 4.9883 13.031 5.31041 12.8327 5.50614L10.2618 8.13071C10.1311 8.26071 10.0729 8.45138 10.1072 8.63699L10.7229 12.3406C10.766 12.6475 10.5676 12.935 10.2768 12.9848C10.1564 13.0043 10.0333 12.9841 9.92381 12.927L6.76458 11.1785C6.60587 11.0875 6.41569 11.0875 6.25697 11.1785L3.07449 12.9364C2.80837 13.0794 2.48273 12.9732 2.3377 12.6981C2.28228 12.5869 2.26313 12.4605 2.28228 12.337L2.89798 8.63338C2.92877 8.44849 2.87062 8.25854 2.74338 8.12782L0.158802 5.50397C-0.0519044 5.28297 -0.0532726 4.9233 0.15675 4.70085C0.157434 4.70013 0.158118 4.69869 0.158802 4.69796C0.245684 4.61491 0.352406 4.5593 0.46802 4.53763L4.01582 3.99668C4.19301 3.96707 4.34557 3.85007 4.42629 3.68035L6.00933 0.318379C6.07295 0.181879 6.18583 0.0771556 6.32265 0.0294887C6.46015 -0.0189006 6.61066 -0.00734492 6.73996 0.0612666C6.84599 0.116878 6.93288 0.207157 6.9876 0.318379Z" fill="#F8D456"/>
</svg>
