<svg width="18" height="16" viewBox="0 0 18 16" fill="none" xmlns="http://www.w3.org/2000/svg">
<path fill-rule="evenodd" clip-rule="evenodd" d="M8.81761 15.3781C7.00876 14.2649 5.32602 12.9547 3.79951 11.471C2.7263 10.4025 1.90927 9.09981 1.41101 7.66282C0.514384 4.87525 1.56171 1.68402 4.4927 0.7396C6.03311 0.243696 7.71547 0.527127 9.01351 1.50123C10.312 0.528313 11.9938 0.244981 13.5343 0.7396C16.4653 1.68402 17.5202 4.87525 16.6235 7.66282C16.1253 9.09981 15.3083 10.4025 14.235 11.471C12.7085 12.9547 11.0258 14.2649 9.21694 15.3781L9.02104 15.5L8.81761 15.3781Z" stroke="#DE012C" stroke-linecap="round" stroke-linejoin="round"/>
<path d="M12.1328 3.87753C13.0206 4.16112 13.6513 4.95812 13.7302 5.89585" stroke="#DE012C" stroke-linecap="round" stroke-linejoin="round"/>
</svg>
