<svg width="20" height="18" fill="none" xmlns="http://www.w3.org/2000/svg"><path d="M2.335 2.71l-.353-.353.353.354zm0 6.707l.354-.353-.354.353zm6.896 6.896l.355-.352-.002-.002-.353.354zm1.514.024l.354.353a.48.48 0 00.03-.034l-.384-.32zm0 0l-.354-.354a.5.5 0 00-.03.034l.384.32zm6.92-6.92l-.354-.353.353.353zm0-6.706l.353-.354-.354.354zM14.31 1.322v-.5.5zm-3.353 1.389l.353.354-.353-.354zM10 3.669l-.354.354a.5.5 0 00.707 0L10 3.669zm-.958-.958l-.354.353.354-.353zM5.689 1.322v.5-.5zM1.446 6.064c0-1.125.447-2.204 1.243-3l-.707-.707A5.242 5.242 0 00.446 6.064h1zm1.243 3a4.242 4.242 0 01-1.243-3h-1c0 1.39.553 2.724 1.536 3.707l.707-.707zm6.895 6.895L2.69 9.064l-.707.707 6.895 6.895.707-.707zm-.708.706l.025.025.707-.707a23.77 23.77 0 01-.022-.022l-.71.704zm.025.025c.607.607 1.59.607 2.197 0l-.707-.707a.554.554 0 01-.783 0l-.707.707zm2.229-.034l-.77-.639.77.64zm-.032.034l6.92-6.919-.707-.707-6.92 6.92.707.706zm6.92-6.919a5.242 5.242 0 001.535-3.707h-1a4.242 4.242 0 01-1.242 3l.707.707zm1.535-3.707c0-1.39-.552-2.723-1.535-3.707l-.707.708a4.242 4.242 0 011.242 3h1zm-1.535-3.707A5.242 5.242 0 0014.31.822v1c1.125 0 2.204.447 3 1.243l.707-.708zM14.31.822c-1.39 0-2.724.552-3.707 1.535l.707.708a4.242 4.242 0 013-1.243v-1zm-3.707 1.535l-.958.958.707.708.958-.958-.707-.708zm-1.916.707l.958.959.707-.708-.958-.958-.707.707zm-3-1.242c1.126 0 2.205.447 3 1.242l.707-.707A5.242 5.242 0 005.69.822v1zm-3 1.242a4.242 4.242 0 013-1.242v-1c-1.39 0-2.723.552-3.706 1.535l.707.707z" fill="#797D80"/></svg>
