<svg width="15" height="15" fill="none" xmlns="http://www.w3.org/2000/svg"><path fill-rule="evenodd" clip-rule="evenodd" d="M8.063.367L9.89 4.25a.634.634 0 00.473.364l4.093.624a.624.624 0 01.417.255.668.668 0 01-.067.86L11.84 9.382a.657.657 0 00-.179.584l.71 4.273c.05.354-.179.686-.514.743a.653.653 0 01-.407-.066l-3.646-2.018a.584.584 0 00-.585 0l-3.673 2.029a.624.624 0 01-.85-.275.695.695 0 01-.064-.417l.71-4.273a.68.68 0 00-.178-.584L.183 6.351a.68.68 0 01-.002-.927l.002-.003c.1-.096.224-.16.357-.185l4.094-.624a.645.645 0 00.473-.365L6.934.367a.633.633 0 01.361-.333.6.6 0 01.482.037.665.665 0 01.286.296z" fill="#F8D456"/></svg>
