<svg width="15" height="15" viewBox="0 0 15 15" fill="none" xmlns="http://www.w3.org/2000/svg">
<path fill-rule="evenodd" clip-rule="evenodd" d="M8.06262 0.367361L9.89078 4.24989C9.98234 4.44572 10.1592 4.58239 10.3644 4.61406L14.4572 5.23823C14.623 5.26156 14.7722 5.35323 14.874 5.49323C15.065 5.75573 15.0358 6.1274 14.8069 6.35323L11.8405 9.38159C11.6897 9.53159 11.6226 9.75159 11.6621 9.96576L12.3725 14.2391C12.4223 14.5933 12.1933 14.925 11.8579 14.9825C11.7189 15.005 11.5768 14.9816 11.4506 14.9158L7.80529 12.8983C7.62216 12.7933 7.40272 12.7933 7.21958 12.8983L3.54748 14.9266C3.24042 15.0916 2.86469 14.9691 2.69734 14.6516C2.63341 14.5233 2.6113 14.3775 2.63341 14.235L3.34383 9.96159C3.37935 9.74826 3.31225 9.52909 3.16543 9.37825L0.183233 6.35073C-0.0598896 6.09573 -0.0614684 5.68073 0.180865 5.42406C0.181654 5.42323 0.182444 5.42156 0.183233 5.42073C0.283482 5.32489 0.406622 5.26073 0.540024 5.23573L4.63364 4.61156C4.83809 4.57739 5.01411 4.44239 5.10726 4.24655L6.93384 0.367361C7.00725 0.20986 7.13749 0.0890257 7.29536 0.0340254C7.45402 -0.0218083 7.62768 -0.00847491 7.77687 0.0706923C7.89922 0.134859 7.99947 0.239027 8.06262 0.367361Z" fill="#F8D456"/>
</svg>
